<svg width="12" height="9" viewBox="0 0 12 9" fill="none" xmlns="http://www.w3.org/2000/svg">
<path d="M11.375 4.44141C11.375 4.29297 11.3145 4.16211 11.1934 4.04883L7.30274 0.164062C7.18945 0.0546871 7.0625 -3.77011e-07 6.92188 -3.89305e-07C6.77734 -4.0194e-07 6.65625 0.0488277 6.55859 0.146484C6.45703 0.240234 6.40625 0.359375 6.40625 0.503906C6.40625 0.574218 6.41992 0.640625 6.44727 0.703125C6.4707 0.769531 6.50586 0.826171 6.55274 0.873046L7.86523 2.20898L10.1855 4.32422L10.3086 4.03711L8.42188 3.91992L1.00977 3.91992C0.857422 3.91992 0.734375 3.96875 0.640625 4.06641C0.542969 4.16406 0.494141 4.28906 0.494141 4.44141C0.494141 4.59375 0.542969 4.71875 0.640625 4.81641C0.734375 4.91406 0.857422 4.96289 1.00977 4.96289L8.42188 4.96289L10.3086 4.8457L10.1855 4.55273L7.86523 6.67383L6.55273 8.00977C6.50586 8.05664 6.4707 8.11133 6.44727 8.17383C6.41992 8.24023 6.40625 8.30859 6.40625 8.37891C6.40625 8.52344 6.45703 8.64258 6.55859 8.73633C6.65625 8.83398 6.77734 8.88281 6.92188 8.88281C6.99219 8.88281 7.06055 8.86914 7.12695 8.8418C7.18945 8.81445 7.25195 8.76953 7.31445 8.70703L11.1934 4.83398C11.3145 4.7207 11.375 4.58984 11.375 4.44141Z" fill="#6E757F"/>
</svg>
