<svg width="361" height="361" viewBox="0 0 361 361" fill="none" xmlns="http://www.w3.org/2000/svg">
<rect width="361" height="361" rx="180.5" fill="white"/>
<g clip-path="url(#clip0_14_8)">
<path d="M74 196.104L74.535 115.74C74.6019 101.208 84.7669 88.7516 98.8106 85.9388L176.319 70.6028C194.91 66.9194 212.231 81.5188 212.097 100.806L211.562 181.17C211.495 195.702 201.33 208.159 187.286 210.971L109.778 226.374C91.12 229.991 73.8662 215.391 74 196.104Z" fill="#111827" fill-opacity="0.2"/>
<path d="M111.985 228.182L112.52 147.819C112.587 133.286 122.752 120.83 136.796 118.017L214.304 102.614C232.895 98.9309 250.216 113.53 250.082 132.818L249.547 213.181C249.48 227.714 239.315 240.17 225.271 242.983L147.763 258.386C129.172 262.069 111.851 247.47 111.985 228.182Z" fill="#111827" fill-opacity="0.5"/>
<path d="M149.903 260.194L150.438 179.83C150.505 165.298 160.67 152.841 174.714 150.029L252.222 134.626C270.813 130.942 288.134 145.542 288 164.829L287.465 245.193C287.398 259.725 277.233 272.182 263.189 274.994L185.681 290.397C167.09 294.081 149.769 279.481 149.903 260.194Z" fill="#111827" fill-opacity="0.8"/>
</g>
<defs>
<clipPath id="clip0_14_8">
<rect width="214" height="221" fill="white" transform="translate(74 70)"/>
</clipPath>
</defs>
</svg>
