<svg width="361" height="361" viewBox="0 0 361 361" fill="none" xmlns="http://www.w3.org/2000/svg">
<g clip-path="url(#clip0_14_8)">
<path d="M6 205.989L6.875 74.7161C6.98437 50.9776 23.6094 30.6303 46.5781 26.0358L173.344 0.984582C203.75 -5.03208 232.078 18.8158 231.859 50.3212L230.984 181.594C230.875 205.332 214.25 225.68 191.281 230.274L64.5156 255.435C34 261.342 5.78125 237.494 6 205.989Z" fill="#F3F7FB" fill-opacity="0.2"/>
<path d="M68.125 258.389L69 127.116C69.1094 103.377 85.7344 83.03 108.703 78.4355L235.469 53.2749C265.875 47.2582 294.203 71.1061 293.984 102.612L293.109 233.884C293 257.623 276.375 277.97 253.406 282.565L126.641 307.725C96.2344 313.742 67.9062 289.894 68.125 258.389Z" fill="#F3F7FB" fill-opacity="0.5"/>
<path d="M130.141 310.679L131.016 179.406C131.125 155.668 147.75 135.32 170.719 130.726L297.484 105.565C327.891 99.5485 356.219 123.396 356 154.902L355.125 286.175C355.016 309.913 338.391 330.26 315.422 334.855L188.656 360.015C158.25 366.032 129.922 342.184 130.141 310.679Z" fill="#F3F7FB" fill-opacity="0.8"/>
</g>
<defs>
<clipPath id="clip0_14_8">
<rect width="350" height="361" fill="white" transform="translate(6)"/>
</clipPath>
</defs>
</svg>
