<svg width="361" height="361" viewBox="0 0 361 361" fill="none" xmlns="http://www.w3.org/2000/svg">
<rect width="361" height="361" rx="180.5" fill="white"/>
<path fill-rule="evenodd" clip-rule="evenodd" d="M125.063 76.1399C127.681 74.5444 130.662 73.7467 133.644 73.7467C135.025 73.7467 136.407 73.9643 137.716 74.2544L267.295 106.454C276.24 108.702 281.766 117.839 279.512 126.759L242.572 274.557C240.318 283.477 231.156 288.988 222.212 286.74L92.632 254.541C88.2691 253.453 84.6333 250.77 82.3064 246.926C79.9795 243.083 79.325 238.586 80.4157 234.235L117.428 86.4378C118.519 82.0866 121.209 78.4606 125.063 76.1399ZM254.934 137.928L134.589 107.976C131.826 107.251 129.063 108.919 128.408 111.675L126.808 118.057C126.154 120.813 127.754 123.568 130.517 124.221L250.862 154.172C253.625 154.825 256.388 153.229 257.043 150.474L258.642 144.092C259.297 141.336 257.697 138.58 254.934 137.928ZM245.772 175.856L125.427 145.905C122.664 145.252 119.9 146.848 119.246 149.603L117.646 155.985C116.992 158.741 118.592 161.497 121.355 162.149L241.7 192.101C244.463 192.753 247.226 191.158 247.88 188.402L249.48 182.02C250.135 179.264 248.535 176.509 245.772 175.856ZM171.238 195.146L115.974 181.44C113.211 180.787 110.447 182.383 109.793 185.139L108.193 191.52C107.539 194.276 109.139 197.032 111.902 197.685L167.166 211.391C169.929 212.044 172.692 210.448 173.347 207.692L174.946 201.311C175.601 198.555 174.001 195.799 171.238 195.146Z" fill="#F3F7FB"/>
<path d="M226.431 304C223.736 304 221.041 303.71 218.274 302.985L88.4858 270.785C79.7459 268.61 72.4626 263.243 67.8013 255.556C63.2128 247.869 61.829 238.876 64.014 230.246L101.013 82.3766C103.198 73.6741 108.588 66.4221 116.308 61.7807C124.028 57.2119 133.059 55.834 141.727 58.0097L271.514 90.2814C289.504 94.7777 300.502 112.908 295.986 130.82L258.987 278.618C255.2 293.847 241.434 304 226.431 304ZM133.569 73.7467C130.583 73.7467 127.597 74.5444 124.975 76.1398C121.115 78.4605 118.42 82.0865 117.328 86.4378L80.2557 234.235C79.1632 238.586 79.8187 243.083 82.1494 246.926C84.48 250.77 88.1216 253.453 92.4916 254.541L222.279 286.74C231.238 288.988 240.415 283.477 242.673 274.557L279.672 126.759C281.929 117.839 276.394 108.702 267.436 106.454L137.648 74.2543C136.337 73.9642 134.953 73.7467 133.569 73.7467ZM134.516 107.976L255.054 137.928C257.822 138.58 259.424 141.336 258.769 144.092L257.166 150.474C256.511 153.229 253.743 154.825 250.976 154.172L130.437 124.221C127.67 123.568 126.067 120.813 126.723 118.057L128.325 111.675C128.981 108.919 131.748 107.251 134.516 107.976ZM125.339 145.905L245.877 175.856C248.645 176.509 250.247 179.264 249.592 182.02L247.989 188.402C247.334 191.158 244.566 192.753 241.799 192.1L121.261 162.149C118.493 161.497 116.891 158.741 117.546 155.985L119.148 149.603C119.804 146.848 122.572 145.252 125.339 145.905ZM115.871 181.44L171.224 195.146C173.991 195.799 175.594 198.555 174.938 201.311L173.336 207.692C172.68 210.448 169.913 212.044 167.145 211.391L111.792 197.685C109.025 197.032 107.422 194.276 108.078 191.52L109.68 185.139C110.336 182.383 113.103 180.787 115.871 181.44Z" fill="#15191C"/>
</svg>
