<svg width="26" height="31" viewBox="0 0 26 31" xmlns="http://www.w3.org/2000/svg">
<path d="M18.8206 7.73753C18.0507 7.73753 17.3321 7.85559 16.6648 8.0917C16.0078 8.32781 15.4073 8.56392 14.8632 8.80003C14.3191 9.02588 13.8469 9.1388 13.4466 9.1388C13.0257 9.1388 12.5586 9.03101 12.0453 8.81543C11.532 8.58958 10.9777 8.36887 10.3823 8.15329C9.79711 7.93772 9.17091 7.82993 8.50364 7.82993C7.24096 7.82993 6.02448 8.17383 4.85419 8.86162C3.68391 9.54942 2.72407 10.5657 1.97468 11.9105C1.22528 13.2553 0.850585 14.9132 0.850585 16.8842C0.850585 18.1161 0.994304 19.348 1.28174 20.5799C1.56918 21.8118 1.95414 22.9769 2.43663 24.0753C2.91912 25.1738 3.45293 26.1439 4.03807 26.9857C4.79773 28.043 5.53686 28.9515 6.25546 29.7112C6.98432 30.4709 7.8261 30.8507 8.78081 30.8507C9.40702 30.8507 9.9511 30.748 10.4131 30.5427C10.875 30.3374 11.3626 30.127 11.8759 29.9114C12.3995 29.7061 13.0513 29.6034 13.8315 29.6034C14.4269 29.6034 14.9248 29.665 15.3252 29.7882C15.7255 29.9114 16.09 30.05 16.4185 30.2039C16.7572 30.3682 17.1114 30.5119 17.481 30.6351C17.8505 30.7583 18.2971 30.8199 18.8206 30.8199C19.5084 30.8199 20.1244 30.6351 20.6685 30.2655C21.2228 29.9062 21.7309 29.4392 22.1929 28.8643C22.6651 28.2894 23.1219 27.6889 23.5634 27.0627C24.0459 26.3543 24.436 25.6768 24.7337 25.03C25.0416 24.373 25.2675 23.8392 25.4112 23.4286C25.5549 23.0077 25.6319 22.7767 25.6422 22.7357C25.6114 22.7254 25.3855 22.6125 24.9646 22.3969C24.554 22.1711 24.0818 21.8169 23.548 21.3344C23.0244 20.8519 22.5625 20.2206 22.1621 19.4404C21.772 18.6602 21.577 17.7055 21.577 16.5763C21.577 15.5908 21.7309 14.7439 22.0389 14.0355C22.3572 13.3169 22.7267 12.7266 23.1476 12.2647C23.5685 11.7925 23.9432 11.4332 24.2717 11.1868C24.6105 10.9404 24.8055 10.8018 24.8568 10.771C24.3436 10.0319 23.7841 9.45703 23.1784 9.04641C22.5727 8.63578 21.9773 8.33808 21.3922 8.15329C20.807 7.96851 20.2835 7.85559 19.8215 7.81453C19.3698 7.7632 19.0362 7.73753 18.8206 7.73753ZM17.7427 5.24298C18.215 4.67837 18.5999 4.0265 18.8976 3.28737C19.1953 2.53797 19.3442 1.76805 19.3442 0.977594C19.3442 0.751749 19.3288 0.551569 19.298 0.377052C18.5281 0.407849 17.7222 0.638827 16.8804 1.06998C16.0489 1.50114 15.3611 2.04009 14.817 2.68683C14.3756 3.17958 13.9855 3.79552 13.6467 4.53465C13.308 5.27377 13.1386 6.03343 13.1386 6.81362C13.1386 6.93681 13.1437 7.04973 13.154 7.15239C13.1745 7.25505 13.1899 7.32691 13.2002 7.36797C13.3336 7.39877 13.4722 7.41417 13.6159 7.41417C14.3037 7.41417 15.0326 7.20885 15.8025 6.79823C16.5827 6.3876 17.2295 5.86918 17.7427 5.24298Z" fill="currentColor"/>
</svg>
