<svg width="296" height="296" viewBox="0 0 296 296" fill="none" xmlns="http://www.w3.org/2000/svg">
<path d="M235.131 130.973C187.508 102.692 108.956 100.091 63.4943 113.889C56.1935 116.105 48.4731 111.982 46.2617 104.683C44.0489 97.3778 48.1658 89.663 55.472 87.4437C107.659 71.603 194.412 74.6621 249.235 107.206C255.802 111.105 257.956 119.585 254.064 126.141C250.169 132.707 241.681 134.871 235.131 130.973ZM233.571 172.862C230.23 178.284 223.141 179.984 217.727 176.655C178.024 152.25 117.483 145.18 70.5117 159.438C64.4205 161.279 57.9867 157.844 56.1364 151.765C54.3011 145.674 57.7372 139.252 63.8175 137.399C117.476 121.117 184.181 129.004 229.782 157.026C235.196 160.361 236.9 167.453 233.571 172.862ZM215.494 213.091C212.839 217.445 207.17 218.809 202.832 216.155C168.139 194.952 124.472 190.163 73.0456 201.909C68.09 203.046 63.151 199.94 62.0208 194.985C60.8857 190.031 63.9794 185.091 68.946 183.961C125.223 171.095 173.498 176.632 212.438 200.428C216.78 203.079 218.147 208.751 215.494 213.091ZM147.739 -2.70735e-05C66.146 -2.70735e-05 0 66.1446 0 147.736C0 229.337 66.146 295.477 147.739 295.477C229.334 295.477 295.477 229.337 295.477 147.736C295.477 66.1446 229.334 -2.70735e-05 147.739 -2.70735e-05Z" fill="#1ED760"/>
</svg>
