<svg width="361" height="361" viewBox="0 0 361 361" fill="none" xmlns="http://www.w3.org/2000/svg">
<path fill-rule="evenodd" clip-rule="evenodd" d="M102.417 32.8319C106.126 30.571 110.351 29.4406 114.576 29.4406C116.534 29.4406 118.492 29.7489 120.347 30.1599L303.974 75.7895C316.649 78.9754 324.48 91.9243 321.286 104.565L268.939 314.009C265.744 326.649 252.76 334.46 240.086 331.274L56.4582 285.644C50.2754 284.103 45.1231 280.3 41.8257 274.854C38.5282 269.407 37.6008 263.035 39.1465 256.869L91.5968 47.4252C93.1425 41.259 96.9552 36.1206 102.417 32.8319ZM286.456 120.391L115.916 77.9477C112 76.92 108.084 79.2837 107.157 83.1889L104.89 92.2326C103.962 96.1378 106.229 100.043 110.145 100.968L280.686 143.412C284.602 144.337 288.517 142.076 289.445 138.17L291.712 129.127C292.639 125.222 290.372 121.316 286.456 120.391ZM273.473 174.14L102.932 131.696C99.0161 130.771 95.1004 133.032 94.1729 136.937L91.9059 145.981C90.9785 149.886 93.2455 153.791 97.1613 154.716L267.702 197.16C271.618 198.085 275.534 195.824 276.461 191.919L278.728 182.875C279.655 178.97 277.388 175.065 273.473 174.14ZM167.851 201.476L89.5359 182.053C85.6201 181.128 81.7044 183.389 80.777 187.294L78.51 196.338C77.5826 200.243 79.8496 204.148 83.7653 205.073L162.08 224.497C165.996 225.422 169.912 223.161 170.839 219.255L173.106 210.212C174.033 206.307 171.766 202.401 167.851 201.476Z" fill="#F3F7FB" fill-opacity="0.8"/>
</svg>
