<svg width="361" height="361" viewBox="0 0 361 361" fill="none" xmlns="http://www.w3.org/2000/svg">
<path d="M245.876 355.722C242.053 355.722 238.23 355.311 234.303 354.282L50.1593 308.597C37.7591 305.511 27.4256 297.897 20.8121 286.99C14.302 276.083 12.3386 263.325 15.4387 251.08L67.933 41.2822C71.0331 28.9351 78.6799 18.6458 89.6334 12.0607C100.587 5.57847 113.401 3.62351 125.697 6.71029L309.841 52.4975C335.365 58.8769 350.968 84.6 344.562 110.015L292.067 319.71C286.694 341.317 267.163 355.722 245.876 355.722ZM114.124 29.038C109.887 29.038 105.65 30.1698 101.93 32.4335C96.4536 35.726 92.6301 40.8707 91.0801 47.0442L38.4824 256.739C36.9324 262.913 37.8624 269.292 41.1692 274.746C44.4759 280.199 49.6427 284.006 55.8428 285.549L239.986 331.234C252.697 334.423 265.717 326.604 268.92 313.948L321.414 104.253C324.618 91.5967 316.764 78.6323 304.054 75.4426L119.911 29.7582C118.051 29.3467 116.087 29.038 114.124 29.038ZM115.467 77.6033L286.487 120.098C290.414 121.024 292.687 124.934 291.757 128.844L289.484 137.898C288.554 141.808 284.627 144.072 280.7 143.146L109.68 100.651C105.754 99.7253 103.48 95.8153 104.41 91.9054L106.684 82.8509C107.614 78.9409 111.541 76.5744 115.467 77.6033ZM102.447 131.416L273.467 173.911C277.394 174.837 279.667 178.747 278.737 182.657L276.464 191.711C275.534 195.621 271.607 197.885 267.68 196.959L96.6602 154.464C92.7335 153.538 90.4601 149.628 91.3901 145.718L93.6635 136.664C94.5935 132.754 98.5203 130.49 102.447 131.416ZM89.0134 181.834L167.548 201.28C171.475 202.206 173.748 206.116 172.818 210.026L170.545 219.081C169.615 222.991 165.688 225.254 161.761 224.328L83.2266 204.882C79.2999 203.956 77.0265 200.046 77.9565 196.136L80.2299 187.081C81.1599 183.171 85.0867 180.908 89.0134 181.834Z" fill="#15191C"/>
<path d="M246.48 355C242.679 355 238.879 354.59 234.976 353.565L51.9415 308.069C39.616 304.995 29.3447 297.413 22.7711 286.551C16.3002 275.689 14.3486 262.983 17.43 250.789L69.6081 41.856C72.6895 29.5598 80.2902 19.313 91.1778 12.755C102.065 6.29946 114.802 4.35255 127.025 7.42661L310.059 53.0251C335.429 59.3782 350.938 84.9953 344.57 110.305L292.392 319.136C287.051 340.654 267.638 355 246.48 355ZM115.521 29.6623C111.31 29.6623 107.098 30.7894 103.401 33.0437C97.9568 36.3227 94.1565 41.4462 92.6158 47.5943L40.335 256.425C38.7943 262.573 39.7187 268.926 43.0055 274.357C46.2923 279.788 51.4279 283.579 57.5907 285.116L240.625 330.612C253.259 333.789 266.2 326.001 269.385 313.398L321.563 104.567C324.747 91.9632 316.941 79.0521 304.307 75.8756L121.273 30.3796C119.424 29.9697 117.472 29.6623 115.521 29.6623ZM116.856 78.0275L286.846 120.347C290.749 121.269 293.008 125.163 292.084 129.057L289.824 138.074C288.9 141.968 284.997 144.222 281.094 143.3L111.104 100.98C107.201 100.058 104.941 96.1644 105.866 92.2706L108.125 83.2533C109.05 79.3595 112.953 77.0028 116.856 78.0275ZM103.914 131.619L273.904 173.938C277.807 174.86 280.067 178.754 279.142 182.648L276.883 191.665C275.958 195.559 272.055 197.813 268.152 196.891L98.1623 154.571C94.2592 153.649 91.9995 149.755 92.9239 145.862L95.1836 136.844C96.108 132.951 100.011 130.696 103.914 131.619ZM90.5615 181.828L168.623 201.195C172.526 202.117 174.786 206.011 173.862 209.904L171.602 218.922C170.678 222.816 166.774 225.07 162.871 224.148L84.8096 204.781C80.9065 203.859 78.6468 199.965 79.5713 196.071L81.8309 187.054C82.7554 183.16 86.6584 180.906 90.5615 181.828Z" fill="#15191C" fill-opacity="0.8"/>
</svg>
