<svg width="341" height="361" viewBox="0 0 341 361" fill="none" xmlns="http://www.w3.org/2000/svg">
<path d="M125.074 52.831L269.713 88.7873C284.729 92.5124 293.901 107.737 290.167 122.719L248.935 287.761C245.201 302.743 229.942 311.894 214.926 308.169L70.2869 272.294C55.271 268.569 46.0992 253.344 49.8329 238.362L91.0655 73.2386C94.7992 58.2568 110.058 49.1058 125.074 52.831Z" fill="#F3F7FB"/>
<path d="M221.987 319C218.97 319 215.952 318.675 212.853 317.861L67.5354 281.751C57.7497 279.311 49.5949 273.293 44.3758 264.672C39.2383 256.051 37.6889 245.967 40.1353 236.288L81.5616 70.4588C84.008 60.6993 90.0426 52.5664 98.6866 47.3614C107.331 42.2377 117.443 40.6924 127.147 43.1323L272.465 79.3237C292.607 84.3661 304.921 104.698 299.865 124.787L258.439 290.535C254.198 307.614 238.786 319 221.987 319ZM118.013 60.7807C114.67 60.7807 111.327 61.6753 108.391 63.4645C104.069 66.067 101.052 70.1335 99.8283 75.0132L58.3205 240.762C57.0973 245.641 57.8312 250.684 60.4407 254.994C63.0503 259.305 67.1276 262.314 72.0205 263.534L217.339 299.644C227.369 302.165 237.644 295.984 240.172 285.98L281.598 120.232C284.126 110.229 277.929 99.9812 267.898 97.46L122.58 61.35C121.112 61.0247 119.563 60.7807 118.013 60.7807ZM119.074 99.1679L254.035 132.757C257.134 133.489 258.928 136.579 258.194 139.67L256.4 146.827C255.666 149.917 252.567 151.706 249.468 150.974L114.507 117.386C111.408 116.654 109.614 113.563 110.348 110.473L112.142 103.316C112.876 100.225 115.975 98.3546 119.074 99.1679ZM108.799 141.703L243.76 175.292C246.859 176.024 248.653 179.114 247.919 182.205L246.125 189.362C245.391 192.452 242.292 194.241 239.193 193.509L104.232 159.921C101.133 159.189 99.339 156.098 100.073 153.008L101.867 145.851C102.601 142.76 105.7 140.971 108.799 141.703ZM98.1973 181.554L160.174 196.925C163.272 197.657 165.066 200.748 164.333 203.838L162.539 210.995C161.805 214.086 158.706 215.875 155.607 215.143L93.6307 199.772C90.5318 199.04 88.7378 195.949 89.4717 192.859L91.2658 185.702C91.9997 182.611 95.0985 180.822 98.1973 181.554Z" fill="#0D0F11"/>
</svg>
