<svg width="341" height="361" viewBox="0 0 341 361" fill="none" xmlns="http://www.w3.org/2000/svg">
<path d="M324.325 94.6827C326.791 90.9769 326.511 86.0875 323.637 82.6879C320.965 79.5264 316.649 78.3613 312.788 79.6728C314.654 76.1226 316.229 72.3879 317.481 68.4988C318.755 64.5398 317.446 60.2052 314.194 57.6134C310.941 55.0215 306.423 54.7135 302.849 56.84C293.688 62.2902 283.746 66.4265 273.176 68.9968C260.858 57.863 244.431 51 226.406 51C185.946 51 155.264 84.9042 156.717 123.424C115.016 118.131 78.3068 96.7652 52.9886 65.6394C50.9161 63.0915 47.7247 61.7238 44.4504 61.9801C41.1761 62.2365 38.2364 64.0843 36.5857 66.9236C24.2823 88.0868 24.2551 113.672 35.0707 134.469C33.9032 134.656 32.7615 135.051 31.7025 135.654C28.6502 137.392 26.7336 140.604 26.6534 144.115C26.1846 164.65 35.2512 184.308 50.4731 197.691C50.3237 197.84 50.1784 197.993 50.0375 198.152C47.6941 200.79 46.9146 204.468 47.9863 207.83C54.1948 227.306 68.6984 243.057 87.3633 250.912C68.5676 260.096 47.4103 263.739 26.1904 261.195C21.564 260.64 17.1677 263.354 15.5904 267.739C14.0131 272.123 15.6728 277.016 19.5922 279.535C47.6095 297.547 80.8167 308 116.491 308C231.703 308 297.526 212.246 296.341 124.961C307.175 116.43 316.702 106.141 324.325 94.6827Z" fill="#F3F7FB" stroke="#0D0F11" stroke-width="20" stroke-linejoin="round"/>
</svg>
