<svg width="12" height="10" viewBox="0 0 12 10" fill="none" xmlns="http://www.w3.org/2000/svg">
<path d="M0.494141 4.76953C0.494141 4.91797 0.554688 5.04883 0.675781 5.16211L4.56641 9.04688C4.67969 9.15625 4.80664 9.21094 4.94727 9.21094C5.0918 9.21094 5.21289 9.16211 5.31055 9.06445C5.41211 8.9707 5.46289 8.85156 5.46289 8.70703C5.46289 8.63672 5.44922 8.57031 5.42188 8.50781C5.39844 8.44141 5.36328 8.38477 5.31641 8.33789L4.00391 7.00195L1.68359 4.88672L1.56055 5.17383L3.44727 5.29102H10.8594C11.0117 5.29102 11.1348 5.24219 11.2285 5.14453C11.3262 5.04688 11.375 4.92188 11.375 4.76953C11.375 4.61719 11.3262 4.49219 11.2285 4.39453C11.1348 4.29688 11.0117 4.24805 10.8594 4.24805H3.44727L1.56055 4.36523L1.68359 4.6582L4.00391 2.53711L5.31641 1.20117C5.36328 1.1543 5.39844 1.09961 5.42188 1.03711C5.44922 0.970703 5.46289 0.902344 5.46289 0.832031C5.46289 0.6875 5.41211 0.568359 5.31055 0.474609C5.21289 0.376953 5.0918 0.328125 4.94727 0.328125C4.87695 0.328125 4.80859 0.341797 4.74219 0.369141C4.67969 0.396484 4.61719 0.441406 4.55469 0.503906L0.675781 4.37695C0.554688 4.49023 0.494141 4.62109 0.494141 4.76953Z" fill="#6E757F"/>
</svg>
