<svg width="10" height="13" viewBox="0 0 10 13" fill="none" xmlns="http://www.w3.org/2000/svg">
<path d="M2.01807 12.479H7.82617C8.29167 12.479 8.64502 12.3521 8.88623 12.0981C9.13167 11.8442 9.25439 11.4676 9.25439 10.9683V6.59473C9.25439 6.09538 9.13167 5.72087 8.88623 5.47119C8.64502 5.21729 8.29167 5.09033 7.82617 5.09033H2.01807C1.55257 5.09033 1.1971 5.21729 0.95166 5.47119C0.710449 5.72087 0.589844 6.09538 0.589844 6.59473V10.9683C0.589844 11.4676 0.710449 11.8442 0.95166 12.0981C1.1971 12.3521 1.55257 12.479 2.01807 12.479ZM1.70068 5.5791H2.70996V3.43359C2.70996 2.90039 2.81152 2.45182 3.01465 2.08789C3.21777 1.72396 3.48649 1.44889 3.8208 1.2627C4.15934 1.0765 4.52539 0.983398 4.91895 0.983398C5.31673 0.983398 5.68278 1.0765 6.01709 1.2627C6.35563 1.44889 6.62646 1.72396 6.82959 2.08789C7.03695 2.45182 7.14062 2.90039 7.14062 3.43359V5.5791H8.14355V3.57324C8.14355 2.77767 7.9891 2.11751 7.68018 1.59277C7.37549 1.06803 6.9777 0.676595 6.48682 0.418457C5.99593 0.156087 5.47331 0.0249023 4.91895 0.0249023C4.36882 0.0249023 3.84831 0.156087 3.35742 0.418457C2.86654 0.676595 2.46663 1.06803 2.15771 1.59277C1.85303 2.11751 1.70068 2.77767 1.70068 3.57324V5.5791Z" fill="#9DA7B1"/>
</svg>
